<svg width="267" height="21" fill="none" xmlns="http://www.w3.org/2000/svg"><path stroke="#fff" stroke-opacity=".75" d="M0 12.5h10M120 12.5h10M15 12.5h10M135 12.5h10M30 12.5h10M150 12.5h10M45 12.5h10M165 12.5h10M60 12.5h10M180 12.5h10M210 12.5h10M75 12.5h10M195 12.5h10M225 12.5h10M90 12.5h10M105 12.5h10"/><path d="M251.478 9.45c-.213 0-.42.061-.597.177a1.034 1.034 0 0 0-.163 1.615 1.097 1.097 0 0 0 1.171.228c.197-.08.364-.214.483-.387a1.034 1.034 0 0 0-.134-1.326 1.089 1.089 0 0 0-.76-.307Zm4.298 0c-.212 0-.42.061-.597.177-.176.115-.314.279-.395.47a1.034 1.034 0 0 0 .233 1.144 1.098 1.098 0 0 0 1.171.228c.196-.079.364-.213.482-.386a1.034 1.034 0 0 0-.134-1.326 1.085 1.085 0 0 0-.76-.307Zm4.299 0c-.213 0-.42.061-.597.177a1.034 1.034 0 0 0-.163 1.615 1.097 1.097 0 0 0 1.171.228c.197-.08.364-.214.482-.387a1.027 1.027 0 0 0-.133-1.326 1.089 1.089 0 0 0-.76-.307ZM255.776 0c-1.411 0-2.808.272-4.112.8a10.764 10.764 0 0 0-3.486 2.275 10.377 10.377 0 0 0-3.148 7.425 10.24 10.24 0 0 0 2.429 6.646l-2.149 2.1a1.031 1.031 0 0 0-.226 1.144c.089.19.234.348.416.456.181.109.392.162.605.153h9.671c2.851 0 5.584-1.106 7.599-3.075a10.377 10.377 0 0 0 3.148-7.424c0-2.785-1.132-5.456-3.148-7.425A10.874 10.874 0 0 0 255.776 0Zm0 18.9h-7.081l.999-.977a1.053 1.053 0 0 0 .323-.746 1.04 1.04 0 0 0-.323-.735 8.32 8.32 0 0 1-2.479-5.114 8.252 8.252 0 0 1 1.404-5.49 8.583 8.583 0 0 1 4.65-3.375 8.785 8.785 0 0 1 5.785.274 8.531 8.531 0 0 1 4.295 3.798 8.232 8.232 0 0 1 .854 5.597 8.371 8.371 0 0 1-2.974 4.857 8.725 8.725 0 0 1-5.453 1.91Z" fill="#fff"/></svg>