<svg width="142" height="27" fill="none" xmlns="http://www.w3.org/2000/svg"><rect width="142" height="27" rx="13.5" fill="url(#a)"/><path d="M35.759 17.61v-1.675c.15.137.328.26.533.37.21.11.43.203.663.28.233.073.465.13.697.17.233.042.447.062.643.062.683 0 1.192-.114 1.524-.341.338-.228.506-.559.506-.992a1.05 1.05 0 0 0-.17-.601 1.688 1.688 0 0 0-.465-.472 4.656 4.656 0 0 0-.712-.403 33.213 33.213 0 0 0-.868-.41 14.376 14.376 0 0 1-.93-.54 4.19 4.19 0 0 1-.751-.602 2.672 2.672 0 0 1-.5-.752 2.479 2.479 0 0 1-.177-.977c0-.46.102-.86.308-1.197.21-.342.483-.622.82-.84.342-.224.729-.388 1.162-.493.433-.11.875-.164 1.326-.164 1.026 0 1.773.116 2.242.349v1.606c-.556-.4-1.271-.601-2.146-.601a3.9 3.9 0 0 0-.725.068 2.19 2.19 0 0 0-.642.226 1.4 1.4 0 0 0-.458.403.988.988 0 0 0-.178.595c0 .219.046.408.137.567.09.16.223.305.396.438.178.132.392.262.643.39.255.122.549.257.882.403.341.177.663.364.963.56.306.196.572.412.8.65.233.237.415.5.547.793.137.287.205.615.205.984 0 .497-.1.916-.3 1.258-.201.341-.472.62-.814.834-.337.214-.727.369-1.169.464a6.61 6.61 0 0 1-1.401.144c-.165 0-.367-.014-.609-.041a7.268 7.268 0 0 1-.731-.11 6.262 6.262 0 0 1-.711-.17 2.255 2.255 0 0 1-.54-.233Zm11.183.315c-.31.155-.717.232-1.223.232-1.358 0-2.037-.651-2.037-1.955v-3.958h-1.17V11h1.17V9.38l1.586-.451V11h1.674v1.244h-1.674v3.5c0 .415.075.711.225.889.15.178.401.266.752.266.269 0 .501-.077.697-.232v1.258Zm6.74.075h-1.538v-1.094h-.027c-.483.839-1.191 1.258-2.126 1.258-.688 0-1.228-.187-1.62-.56-.387-.374-.581-.869-.581-1.484 0-1.322.761-2.092 2.283-2.31l2.078-.294c0-.998-.474-1.497-1.422-1.497-.834 0-1.585.287-2.255.86v-1.387c.738-.437 1.59-.656 2.556-.656 1.768 0 2.653.87 2.653 2.611V18Zm-1.53-3.438-1.47.205c-.456.059-.8.17-1.033.335-.227.16-.341.442-.341.847 0 .296.104.54.314.732.214.186.5.28.855.28.483 0 .881-.169 1.196-.506.319-.342.478-.77.478-1.285v-.608Zm7.533-2.051c-.192-.15-.468-.226-.828-.226-.469 0-.86.212-1.175.636-.315.424-.472 1-.472 1.73V18h-1.586v-7h1.586v1.442h.027c.155-.492.392-.875.711-1.148a1.618 1.618 0 0 1 1.08-.417c.287 0 .506.043.657.13v1.504Zm5.222 5.414c-.31.155-.718.232-1.223.232-1.358 0-2.037-.651-2.037-1.955v-3.958h-1.17V11h1.17V9.38l1.585-.451V11h1.675v1.244h-1.675v3.5c0 .415.076.711.226.889.15.178.401.266.752.266.269 0 .501-.077.697-.232v1.258ZM75.503 18h-1.538v-1.094h-.028c-.483.839-1.191 1.258-2.126 1.258-.688 0-1.228-.187-1.62-.56-.387-.374-.58-.869-.58-1.484 0-1.322.76-2.092 2.283-2.31l2.078-.294c0-.998-.474-1.497-1.422-1.497-.834 0-1.586.287-2.256.86v-1.387c.738-.437 1.59-.656 2.557-.656 1.768 0 2.652.87 2.652 2.611V18Zm-1.531-3.438-1.47.205c-.456.059-.8.17-1.032.335-.228.16-.342.442-.342.847 0 .296.105.54.314.732.215.186.5.28.855.28.483 0 .882-.169 1.196-.506.32-.342.479-.77.479-1.285v-.608Zm11.02 3.363c-.31.155-.719.232-1.224.232-1.359 0-2.037-.651-2.037-1.955v-3.958h-1.17V11h1.17V9.38l1.585-.451V11h1.675v1.244h-1.675v3.5c0 .415.076.711.226.889.15.178.401.266.752.266.269 0 .501-.077.697-.232v1.258Zm7.587.075h-1.586v-3.828c0-1.386-.462-2.078-1.387-2.078-.465 0-.857.2-1.176.601-.32.401-.479.914-.479 1.538V18h-1.593V7.637h1.593v4.525h.028c.528-.884 1.285-1.326 2.269-1.326 1.554 0 2.331.95 2.331 2.85V18Zm5.988-5.49c-.191-.15-.467-.225-.827-.225-.47 0-.861.212-1.175.636-.315.424-.472 1-.472 1.73V18h-1.586v-7h1.586v1.442h.027c.155-.492.392-.875.711-1.148a1.617 1.617 0 0 1 1.08-.417c.287 0 .506.043.656.13v1.504Zm6.925 2.42h-4.771c.018.648.216 1.147.594 1.498.383.35.907.526 1.573.526.747 0 1.433-.223 2.057-.67v1.279c-.638.4-1.481.601-2.529.601-1.03 0-1.839-.317-2.427-.95-.583-.638-.875-1.534-.875-2.687 0-1.089.322-1.975.964-2.659.647-.688 1.449-1.032 2.406-1.032.957 0 1.698.308 2.222.923s.786 1.47.786 2.563v.609Zm-1.531-1.12c-.005-.57-.139-1.012-.403-1.327-.265-.319-.629-.478-1.094-.478a1.55 1.55 0 0 0-1.162.499c-.315.333-.508.768-.581 1.306h3.24Zm8.415 4.19h-1.538v-1.094h-.027c-.484.839-1.192 1.258-2.126 1.258-.689 0-1.229-.187-1.621-.56-.387-.374-.581-.869-.581-1.484 0-1.322.761-2.092 2.284-2.31l2.078-.294c0-.998-.474-1.497-1.422-1.497-.834 0-1.586.287-2.256.86v-1.387c.738-.437 1.59-.656 2.557-.656 1.768 0 2.652.87 2.652 2.611V18Zm-1.531-3.438-1.47.205c-.456.059-.8.17-1.032.335-.228.16-.342.442-.342.847 0 .296.105.54.314.732.215.186.499.28.855.28.483 0 .882-.169 1.196-.506.319-.342.479-.77.479-1.285v-.608ZM120.682 18h-1.586v-1.19h-.028c-.51.903-1.296 1.354-2.358 1.354-.861 0-1.552-.312-2.071-.937-.515-.628-.773-1.483-.773-2.563 0-1.157.285-2.085.855-2.782.574-.697 1.337-1.046 2.29-1.046.943 0 1.629.378 2.057 1.135h.028V7.637h1.586V18Zm-1.566-3.2v-.915c0-.497-.162-.918-.485-1.265-.324-.346-.736-.52-1.237-.52-.593 0-1.06.222-1.402.664-.337.442-.506 1.055-.506 1.838 0 .711.162 1.274.486 1.689.328.41.768.615 1.319.615.542 0 .982-.198 1.319-.595.338-.4.506-.904.506-1.51Z" fill="#fff"/><path d="M21.413 8.257h-4.21c-.32 0-.625.125-.85.348a1.177 1.177 0 0 0-.353.838v8.3c0 .314.127.615.352.838.226.222.532.347.85.347h8.421c.32 0 .625-.125.85-.347.226-.223.353-.524.353-.839v-4.15" stroke="#fff" stroke-linecap="round" stroke-linejoin="round"/><path d="M25.924 7.368a1.285 1.285 0 0 1 1.804 0 1.248 1.248 0 0 1 0 1.779l-5.713 5.631-2.406.593L20.21 13l5.714-5.632Z" stroke="#fff" stroke-linecap="round" stroke-linejoin="round"/><defs><linearGradient id="a" x1="71" y1="0" x2="71" y2="27" gradientUnits="userSpaceOnUse"><stop stop-color="#864A23"/><stop offset="1" stop-color="#6A3A1B"/></linearGradient></defs></svg>