<svg width="36" height="20" fill="none" xmlns="http://www.w3.org/2000/svg"><path fill-rule="evenodd" clip-rule="evenodd" d="M31.238 14.02s2.817 2.793 3.514 4.086a.22.22 0 0 1 .032.061c.284.478.353.852.214 1.128-.235.457-1.032.686-1.302.705h-4.98c-.346 0-1.067-.09-1.945-.7-.671-.47-1.338-1.245-1.985-2.002-.965-1.125-1.8-2.101-2.645-2.101a.95.95 0 0 0-.313.053c-.64.202-1.452 1.117-1.452 3.554 0 .763-.6 1.196-1.019 1.196h-2.28c-.778 0-4.823-.273-8.41-4.07C4.27 11.28.321 1.954.283 1.872.038 1.268.554.94 1.11.94H6.14c.674 0 .894.409 1.047.776.178.422.836 2.108 1.916 4.002 1.75 3.082 2.825 4.337 3.684 4.337.161 0 .32-.042.46-.123 1.122-.62.913-4.642.86-5.471 0-.161-.001-1.797-.576-2.587-.412-.567-1.112-.788-1.535-.868.113-.164.353-.416.662-.565.768-.385 2.157-.44 3.535-.44h.765c1.495.02 1.882.116 2.425.255 1.094.262 1.115.974 1.02 3.398a57.13 57.13 0 0 0-.058 2.391c0 .196-.009.415-.009.637-.033 1.244-.076 2.645.798 3.22.114.071.245.109.378.109.303 0 1.211 0 3.673-4.242 1.08-1.873 1.917-4.083 1.974-4.249.049-.092.195-.353.373-.458a.832.832 0 0 1 .411-.098h5.915c.645 0 1.082.098 1.168.343.143.397-.028 1.61-2.729 5.275-.454.61-.853 1.14-1.204 1.6-2.448 3.226-2.448 3.389.145 5.838Z" fill="#fff"/></svg>