<svg width="24" height="24" fill="none" xmlns="http://www.w3.org/2000/svg"><path d="M12 1.5A10.5 10.5 0 1 0 22.5 12 10.512 10.512 0 0 0 12 1.5" fill="#fff"/><path d="M11.616 12.189c-.095.205-.199.434-.306.675-.389.836-.71 1.702-.96 2.59a3.887 3.887 0 0 0-.09.866c0 .13.008.267.019.407a4.993 4.993 0 0 0 3.31.05 2.98 2.98 0 0 1-.33-.35c-.675-.86-1.05-2.12-1.646-4.239M9.127 7.917a5.008 5.008 0 0 0-.058 8.16c.308-1.282 1.08-2.456 2.237-4.81-.069-.19-.15-.396-.234-.613a7.654 7.654 0 0 0-1.2-2.162 3.33 3.33 0 0 0-.75-.575" fill="#91DC47"/><path d="M16.38 17.775a8.155 8.155 0 0 1-1.693-.353 6.027 6.027 0 0 1-6.65-9.935 4.425 4.425 0 0 0-1.05-.129c-1.769.017-3.636.996-4.413 3.64-.054.337-.072.679-.055 1.02a9.486 9.486 0 0 0 17.25 5.456c-.846.216-1.714.331-2.586.344a6.662 6.662 0 0 1-.803-.043" fill="#63B132"/><path d="M14.597 15.933c.122.052.247.095.375.129a5.019 5.019 0 0 0-.024-8.113 5.01 5.01 0 0 0-4.516-.693c1.019 1.161 1.509 2.821 1.983 4.636.474 1.815.15.505.41 1.171.27.73.612 1.43 1.022 2.091.182.318.44.585.75.777" fill="#90B4FE"/><path d="M12.01 2.53a9.474 9.474 0 0 0-7.712 3.962 4.819 4.819 0 0 1 2.61-.757 5.1 5.1 0 0 1 2.387.58c.1.057.196.12.29.184a6.028 6.028 0 0 1 6.66 9.808c.285.032.572.048.858.048a4.68 4.68 0 0 0 3.038-.948 4.01 4.01 0 0 0 1.275-2.18A9.473 9.473 0 0 0 12.01 2.53" fill="#5881D8"/></svg>